<svg id="Layer_1" data-name="Layer 1" xmlns="http://www.w3.org/2000/svg" viewBox="0 0 201 20"><defs><style>.cls-1{fill:#fff;}</style></defs><title>collegeofengineering</title><path class="cls-1" d="M11.63,1.64V3.93a9.17,9.17,0,0,0-1.85-.83A6,6,0,0,0,8,2.83a4.89,4.89,0,0,0-2.46.62A4.31,4.31,0,0,0,3.87,5.17a5.21,5.21,0,0,0-.6,2.53,6,6,0,0,0,.66,2.82,5.18,5.18,0,0,0,1.81,2,4.58,4.58,0,0,0,2.53.74,7,7,0,0,0,2-.3,13.24,13.24,0,0,0,2.33-1l-1,2.32a8.23,8.23,0,0,1-1,.35,7.44,7.44,0,0,1-1,.18,9.29,9.29,0,0,1-1.09.06,9.27,9.27,0,0,1-3.06-.49A6.9,6.9,0,0,1,3.07,13a6.08,6.08,0,0,1-1.54-2.18A7.11,7.11,0,0,1,1,8,6.93,6.93,0,0,1,1.91,4.5,6.48,6.48,0,0,1,4.44,2a7.35,7.35,0,0,1,3.61-.89A15.52,15.52,0,0,1,11.63,1.64Z"/><path class="cls-1" d="M19,5.11a4.89,4.89,0,0,1,3.44,1.28A4.59,4.59,0,0,1,23.62,8,4.77,4.77,0,0,1,24,9.9a4.65,4.65,0,0,1-.69,2.49,4.94,4.94,0,0,1-1.91,1.78,5.59,5.59,0,0,1-2.68.65,5.41,5.41,0,0,1-2.6-.63,4.64,4.64,0,0,1-1.83-1.74,4.82,4.82,0,0,1-.16-4.56A4.81,4.81,0,0,1,15.5,6.21a5.25,5.25,0,0,1,2.18-1A7,7,0,0,1,19,5.11ZM18.7,6.45a3,3,0,0,0-1.58.42A2.83,2.83,0,0,0,16,8.05a3.8,3.8,0,0,0-.38,1.72,4.37,4.37,0,0,0,.24,1.45,3.59,3.59,0,0,0,.69,1.21,3.09,3.09,0,0,0,1,.79,2.94,2.94,0,0,0,1.26.27,3.12,3.12,0,0,0,1.6-.41,2.85,2.85,0,0,0,1.1-1.16A3.65,3.65,0,0,0,22,10.19a4.44,4.44,0,0,0-.41-2A3.06,3.06,0,0,0,18.7,6.45Z"/><path class="cls-1" d="M28.78,14.56h-3.3a2.78,2.78,0,0,0,.53-.49,1,1,0,0,0,.18-.47,8,8,0,0,0,0-1V3.42a8.1,8.1,0,0,0,0-1A1,1,0,0,0,26,1.94a2.94,2.94,0,0,0-.53-.48h1.37A1.54,1.54,0,0,0,28,1.08V12.6a4.22,4.22,0,0,0,.12,1.25A2,2,0,0,0,28.78,14.56Z"/><path class="cls-1" d="M33.53,14.56h-3.3a2.78,2.78,0,0,0,.53-.49,1,1,0,0,0,.18-.47,8,8,0,0,0,0-1V3.42a8.1,8.1,0,0,0,0-1,1,1,0,0,0-.18-.46,2.94,2.94,0,0,0-.53-.48h1.37a1.54,1.54,0,0,0,1.17-.38V12.6a4.22,4.22,0,0,0,.12,1.25A2,2,0,0,0,33.53,14.56Z"/><path class="cls-1" d="M44.49,9.77H37.17a4.3,4.3,0,0,0,.54,2A3.2,3.2,0,0,0,39.09,13a4.59,4.59,0,0,0,2.06.44,6.61,6.61,0,0,0,1.2-.11A4.74,4.74,0,0,0,43.44,13a6.86,6.86,0,0,0,1-.59l-1.08,1.9a8.13,8.13,0,0,1-.9.28,6.4,6.4,0,0,1-.9.15q-.47,0-1,0a6.69,6.69,0,0,1-2.91-.62,4.73,4.73,0,0,1-2-1.73A4.57,4.57,0,0,1,35,10a4.83,4.83,0,0,1,.2-1.37,5.29,5.29,0,0,1,.57-1.28,4.7,4.7,0,0,1,.86-1,4.26,4.26,0,0,1,1.48-.86A5.61,5.61,0,0,1,40,5.11a4.94,4.94,0,0,1,1.8.32,4.33,4.33,0,0,1,1.44.9,4.13,4.13,0,0,1,.95,1.38,4.37,4.37,0,0,1,.34,1.74ZM37.25,8.53H42.4A2.39,2.39,0,0,0,39.86,6.3a2.56,2.56,0,0,0-1.7.58A2.81,2.81,0,0,0,37.25,8.53Z"/><path class="cls-1" d="M56.86,5.11l-.57,1.28a.57.57,0,0,1-.56.25,15.78,15.78,0,0,1-2.19-.29,3.75,3.75,0,0,1,1.12,1.12A2.59,2.59,0,0,1,55,8.82a2.47,2.47,0,0,1-.57,1.62,3.82,3.82,0,0,1-1.69,1.1,7.91,7.91,0,0,1-2,.4,1.77,1.77,0,0,0-.6.21.36.36,0,0,0-.19.31q0,.38.83.38,1.36,0,2,.08a6.86,6.86,0,0,1,1.28.23,3.64,3.64,0,0,1,1,.47,3.28,3.28,0,0,1,.82.73,2.42,2.42,0,0,1,.43,1.45,2.6,2.6,0,0,1-1,2.12,5,5,0,0,1-.89.58,6.72,6.72,0,0,1-1,.42,7.76,7.76,0,0,1-1.18.26,9.16,9.16,0,0,1-1.31.09,9.63,9.63,0,0,1-2.75-.37,5,5,0,0,1-2-1,2,2,0,0,1-.72-1.46,1.58,1.58,0,0,1,.22-.84,1.41,1.41,0,0,1,.64-.55,2.34,2.34,0,0,1,1-.19,2.74,2.74,0,0,1,1.08.24,1.24,1.24,0,0,0-.67.3.85.85,0,0,0-.22.63,1.77,1.77,0,0,0,.92,1.57,4.64,4.64,0,0,0,2.48.58,5.65,5.65,0,0,0,1.84-.28A2.9,2.9,0,0,0,54,17.1,1.65,1.65,0,0,0,54.48,16a1.52,1.52,0,0,0-1-1.44,7.5,7.5,0,0,0-3-.47l-1,0-.45,0a1.38,1.38,0,0,1-.95-.34,1.64,1.64,0,0,1-.33-.51,1.45,1.45,0,0,1-.14-.57.5.5,0,0,1,.12-.34A1.58,1.58,0,0,1,48.2,12q.34-.17,1-.43a4.93,4.93,0,0,1-.82-.28,2.89,2.89,0,0,1-.62-.43A3.23,3.23,0,0,1,47,9.8a3.07,3.07,0,0,1-.29-1.29,3,3,0,0,1,.53-1.72,3.67,3.67,0,0,1,1.48-1.22,4.75,4.75,0,0,1,2.08-.45q.35,0,1.73.09,1,.07,1.91.07A20.07,20.07,0,0,0,56.86,5.11Zm-6.3,1.15a2.1,2.1,0,0,0-1.47.54,1.75,1.75,0,0,0-.59,1.35,2.43,2.43,0,0,0,.75,1.8,2.49,2.49,0,0,0,1.82.74,1.94,1.94,0,0,0,1.45-.56,2,2,0,0,0,.55-1.45A2.29,2.29,0,0,0,52.34,7,2.47,2.47,0,0,0,50.56,6.27Z"/><path class="cls-1" d="M66.64,9.77H59.32a4.3,4.3,0,0,0,.54,2A3.2,3.2,0,0,0,61.25,13a4.59,4.59,0,0,0,2.06.44,6.61,6.61,0,0,0,1.2-.11A4.74,4.74,0,0,0,65.59,13a6.86,6.86,0,0,0,1-.59l-1.08,1.9a8.13,8.13,0,0,1-.9.28,6.4,6.4,0,0,1-.9.15q-.47,0-1,0a6.69,6.69,0,0,1-2.91-.62,4.73,4.73,0,0,1-2-1.73A4.57,4.57,0,0,1,57.18,10a4.83,4.83,0,0,1,.2-1.37,5.29,5.29,0,0,1,.57-1.28,4.7,4.7,0,0,1,.86-1,4.26,4.26,0,0,1,1.48-.86,5.61,5.61,0,0,1,1.84-.29,4.94,4.94,0,0,1,1.8.32,4.33,4.33,0,0,1,1.44.9,4.13,4.13,0,0,1,.95,1.38,4.37,4.37,0,0,1,.34,1.74ZM59.41,8.53h5.15A2.39,2.39,0,0,0,62,6.3a2.56,2.56,0,0,0-1.7.58A2.81,2.81,0,0,0,59.41,8.53Z"/><path class="cls-1" d="M78.47,5.11a4.89,4.89,0,0,1,3.44,1.28A4.59,4.59,0,0,1,83.06,8a4.77,4.77,0,0,1,.4,1.91,4.65,4.65,0,0,1-.69,2.49,4.94,4.94,0,0,1-1.91,1.78,5.59,5.59,0,0,1-2.68.65,5.41,5.41,0,0,1-2.6-.63,4.64,4.64,0,0,1-1.83-1.74,4.82,4.82,0,0,1-.16-4.56,4.81,4.81,0,0,1,1.37-1.69,5.25,5.25,0,0,1,2.18-1A7,7,0,0,1,78.47,5.11Zm-.32,1.33a3,3,0,0,0-1.58.42,2.83,2.83,0,0,0-1.07,1.18,3.8,3.8,0,0,0-.38,1.72,4.37,4.37,0,0,0,.24,1.45A3.59,3.59,0,0,0,76,12.42a3.09,3.09,0,0,0,1,.79,2.94,2.94,0,0,0,1.26.27,3.12,3.12,0,0,0,1.6-.41A2.85,2.85,0,0,0,81,11.91a3.65,3.65,0,0,0,.39-1.72,4.44,4.44,0,0,0-.41-2,3.06,3.06,0,0,0-2.87-1.79Z"/><path class="cls-1" d="M87.65,6.7v5.22q0,.45,0,.88a3.76,3.76,0,0,0,.08.68,2,2,0,0,0,.17.46,3.35,3.35,0,0,0,.28.41,1.36,1.36,0,0,0,.29.22H85.1a2.57,2.57,0,0,0,.52-.48,1.16,1.16,0,0,0,.19-.52,7.36,7.36,0,0,0,0-1V6.7h-1l1-1.32v-1A3.42,3.42,0,0,1,86.11,3a3.1,3.1,0,0,1,.84-1.08,3.46,3.46,0,0,1,1.33-.72A6.6,6.6,0,0,1,90.13,1a8.62,8.62,0,0,1,1.36.14L90.08,2.68a1.83,1.83,0,0,0-1-.32,1.31,1.31,0,0,0-1.22.58,2.4,2.4,0,0,0-.18,1.17V5.38h2a2,2,0,0,0,.7-.12V7A.78.78,0,0,0,90,6.76a2.74,2.74,0,0,0-.7-.06Z"/><path class="cls-1" d="M99.28,8.15v4.73a15.53,15.53,0,0,0,2.45.2,7.9,7.9,0,0,0,2.18-.26,5.21,5.21,0,0,0,1.71-.87l-.92,2.61h-8.3a1.54,1.54,0,0,0,.56-.47,1.74,1.74,0,0,0,.26-.75A10,10,0,0,0,97.29,12V4a9.28,9.28,0,0,0-.07-1.35A1.75,1.75,0,0,0,97,1.93a1.59,1.59,0,0,0-.56-.46H103a2.07,2.07,0,0,0,.75-.12V3.66a2.46,2.46,0,0,0-1-.63,5,5,0,0,0-1.46-.17A12.36,12.36,0,0,0,99.28,3V6.72h2.66a1.58,1.58,0,0,0,.67-.13V8.7a1.16,1.16,0,0,0-.55-.42,3.2,3.2,0,0,0-1-.12Z"/><path class="cls-1" d="M109,5V6.66a5,5,0,0,1,1.4-1.2A3.3,3.3,0,0,1,112,5.11a4.44,4.44,0,0,1,1.22.17,3.63,3.63,0,0,1,1.08.5,3,3,0,0,1,.75.74,2.75,2.75,0,0,1,.37,1,10.49,10.49,0,0,1,.1,1.7V12.6a4.22,4.22,0,0,0,.12,1.25,2,2,0,0,0,.64.71h-3.32a2.81,2.81,0,0,0,.53-.49,1.12,1.12,0,0,0,.19-.51,7.24,7.24,0,0,0,0-1V9.43a6.18,6.18,0,0,0-.1-1.26,1.72,1.72,0,0,0-.33-.74,2,2,0,0,0-.83-.61,2.93,2.93,0,0,0-1.16-.23,2.58,2.58,0,0,0-1.1.23,2,2,0,0,0-.79.64,2,2,0,0,0-.27,1.13v4a7.21,7.21,0,0,0,0,1,1.06,1.06,0,0,0,.19.49,3.17,3.17,0,0,0,.52.49h-3.3a2.78,2.78,0,0,0,.53-.49,1,1,0,0,0,.18-.47,8,8,0,0,0,0-1V7.34a8,8,0,0,0,0-1,1,1,0,0,0-.18-.47,2.8,2.8,0,0,0-.53-.49h1.28A1.54,1.54,0,0,0,109,5Z"/><path class="cls-1" d="M128.57,5.11,128,6.39a.57.57,0,0,1-.56.25,15.78,15.78,0,0,1-2.19-.29,3.75,3.75,0,0,1,1.12,1.12,2.59,2.59,0,0,1,.35,1.34,2.47,2.47,0,0,1-.57,1.62,3.82,3.82,0,0,1-1.69,1.1,7.91,7.91,0,0,1-2,.4,1.77,1.77,0,0,0-.6.21.36.36,0,0,0-.19.31q0,.38.83.38,1.36,0,2,.08a6.86,6.86,0,0,1,1.28.23,3.64,3.64,0,0,1,1,.47,3.28,3.28,0,0,1,.82.73,2.42,2.42,0,0,1,.43,1.45,2.6,2.6,0,0,1-1,2.12,5,5,0,0,1-.89.58,6.72,6.72,0,0,1-1,.42,7.76,7.76,0,0,1-1.18.26,9.16,9.16,0,0,1-1.31.09,9.63,9.63,0,0,1-2.75-.37,5,5,0,0,1-2-1,2,2,0,0,1-.72-1.46,1.58,1.58,0,0,1,.22-.84,1.41,1.41,0,0,1,.64-.55,2.34,2.34,0,0,1,1-.19,2.74,2.74,0,0,1,1.08.24,1.24,1.24,0,0,0-.67.3.85.85,0,0,0-.22.63,1.77,1.77,0,0,0,.92,1.57,4.64,4.64,0,0,0,2.48.58,5.65,5.65,0,0,0,1.84-.28,2.9,2.9,0,0,0,1.25-.77A1.65,1.65,0,0,0,126.2,16a1.52,1.52,0,0,0-1-1.44,7.5,7.5,0,0,0-3-.47l-1,0-.45,0a1.38,1.38,0,0,1-.95-.34,1.64,1.64,0,0,1-.33-.51,1.45,1.45,0,0,1-.14-.57.5.5,0,0,1,.12-.34,1.58,1.58,0,0,1,.46-.31q.34-.17,1-.43a4.93,4.93,0,0,1-.82-.28,2.89,2.89,0,0,1-.62-.43,3.23,3.23,0,0,1-.8-1.09,3.07,3.07,0,0,1-.29-1.29,3,3,0,0,1,.53-1.72,3.67,3.67,0,0,1,1.48-1.22,4.75,4.75,0,0,1,2.08-.45q.35,0,1.73.09,1,.07,1.91.07A20.07,20.07,0,0,0,128.57,5.11Zm-6.3,1.15a2.1,2.1,0,0,0-1.47.54,1.75,1.75,0,0,0-.59,1.35A2.43,2.43,0,0,0,121,10a2.49,2.49,0,0,0,1.82.74,1.94,1.94,0,0,0,1.45-.56,2,2,0,0,0,.55-1.45A2.29,2.29,0,0,0,124.05,7,2.47,2.47,0,0,0,122.28,6.27Z"/><path class="cls-1" d="M132,5V12.6a7.21,7.21,0,0,0,0,1,1.06,1.06,0,0,0,.19.49,3.17,3.17,0,0,0,.52.49h-3.3a2.78,2.78,0,0,0,.53-.49,1,1,0,0,0,.18-.47,8,8,0,0,0,0-1V7.34a8,8,0,0,0,0-1,1,1,0,0,0-.18-.47,2.8,2.8,0,0,0-.53-.49h1.38A1.52,1.52,0,0,0,132,5Zm-.9-3.3a1.14,1.14,0,0,1,.86.36,1.2,1.2,0,0,1,.35.86,1.23,1.23,0,0,1-.35.89,1.19,1.19,0,0,1-.89.36,1.16,1.16,0,0,1-.87-.36,1.22,1.22,0,0,1-.35-.89,1.16,1.16,0,0,1,.37-.87A1.23,1.23,0,0,1,131.06,1.7Z"/><path class="cls-1" d="M136.69,5V6.66a5,5,0,0,1,1.4-1.2,3.3,3.3,0,0,1,1.55-.35,4.44,4.44,0,0,1,1.22.17,3.63,3.63,0,0,1,1.08.5,3,3,0,0,1,.75.74,2.75,2.75,0,0,1,.37,1,10.49,10.49,0,0,1,.1,1.7V12.6a4.22,4.22,0,0,0,.12,1.25,2,2,0,0,0,.64.71H140.6a2.81,2.81,0,0,0,.53-.49,1.12,1.12,0,0,0,.19-.51,7.24,7.24,0,0,0,0-1V9.43a6.18,6.18,0,0,0-.1-1.26,1.72,1.72,0,0,0-.33-.74,2,2,0,0,0-.83-.61,2.93,2.93,0,0,0-1.16-.23,2.58,2.58,0,0,0-1.1.23,2,2,0,0,0-.79.64,2,2,0,0,0-.27,1.13v4a7.21,7.21,0,0,0,0,1,1.06,1.06,0,0,0,.19.49,3.17,3.17,0,0,0,.52.49h-3.3a2.78,2.78,0,0,0,.53-.49,1,1,0,0,0,.18-.47,8,8,0,0,0,0-1V7.34a8,8,0,0,0,0-1,1,1,0,0,0-.18-.47,2.8,2.8,0,0,0-.53-.49h1.28A1.54,1.54,0,0,0,136.69,5Z"/><path class="cls-1" d="M154.85,9.77h-7.32a4.3,4.3,0,0,0,.54,2A3.2,3.2,0,0,0,149.45,13a4.59,4.59,0,0,0,2.06.44,6.61,6.61,0,0,0,1.2-.11A4.74,4.74,0,0,0,153.8,13a6.86,6.86,0,0,0,1-.59l-1.08,1.9a8.13,8.13,0,0,1-.9.28,6.4,6.4,0,0,1-.9.15q-.47,0-1,0a6.69,6.69,0,0,1-2.91-.62,4.73,4.73,0,0,1-2-1.73,4.57,4.57,0,0,1-.71-2.52,4.83,4.83,0,0,1,.2-1.37,5.29,5.29,0,0,1,.57-1.28,4.7,4.7,0,0,1,.86-1,4.26,4.26,0,0,1,1.48-.86,5.61,5.61,0,0,1,1.84-.29,4.94,4.94,0,0,1,1.8.32,4.33,4.33,0,0,1,1.44.9,4.13,4.13,0,0,1,.95,1.38,4.37,4.37,0,0,1,.34,1.74Zm-7.24-1.24h5.15a2.39,2.39,0,0,0-2.53-2.23,2.56,2.56,0,0,0-1.7.58A2.81,2.81,0,0,0,147.61,8.53Z"/><path class="cls-1" d="M165.82,9.77H158.5a4.3,4.3,0,0,0,.54,2A3.2,3.2,0,0,0,160.42,13a4.59,4.59,0,0,0,2.06.44,6.61,6.61,0,0,0,1.2-.11,4.74,4.74,0,0,0,1.08-.33,6.86,6.86,0,0,0,1-.59l-1.08,1.9a8.13,8.13,0,0,1-.9.28,6.4,6.4,0,0,1-.9.15q-.47,0-1,0a6.69,6.69,0,0,1-2.91-.62,4.73,4.73,0,0,1-2-1.73,4.57,4.57,0,0,1-.71-2.52,4.83,4.83,0,0,1,.2-1.37,5.29,5.29,0,0,1,.57-1.28,4.7,4.7,0,0,1,.86-1,4.26,4.26,0,0,1,1.48-.86,5.61,5.61,0,0,1,1.84-.29,4.94,4.94,0,0,1,1.8.32,4.33,4.33,0,0,1,1.44.9,4.13,4.13,0,0,1,.95,1.38,4.37,4.37,0,0,1,.34,1.74Zm-7.24-1.24h5.15A2.39,2.39,0,0,0,161.2,6.3a2.56,2.56,0,0,0-1.7.58A2.81,2.81,0,0,0,158.58,8.53Z"/><path class="cls-1" d="M170.66,14.56h-3.3a2.78,2.78,0,0,0,.53-.49,1,1,0,0,0,.18-.47,8,8,0,0,0,0-1V7.34a8,8,0,0,0,0-1,1,1,0,0,0-.18-.47,2.8,2.8,0,0,0-.53-.49h1.38A1.52,1.52,0,0,0,169.91,5V6.64a3,3,0,0,1,1-1.14,2.5,2.5,0,0,1,1.38-.39,4.1,4.1,0,0,1,.69.07V7A1.29,1.29,0,0,0,172,6.7a2.31,2.31,0,0,0-1,.22,1.74,1.74,0,0,0-.72.59,3.13,3.13,0,0,0-.42,1.81V12.6a7.21,7.21,0,0,0,0,1,1.06,1.06,0,0,0,.19.49A3.17,3.17,0,0,0,170.66,14.56Z"/><path class="cls-1" d="M176.72,5V12.6a7.21,7.21,0,0,0,0,1,1.06,1.06,0,0,0,.19.49,3.17,3.17,0,0,0,.52.49h-3.3a2.78,2.78,0,0,0,.53-.49,1,1,0,0,0,.18-.47,8,8,0,0,0,0-1V7.34a8,8,0,0,0,0-1,1,1,0,0,0-.18-.47,2.8,2.8,0,0,0-.53-.49h1.38A1.52,1.52,0,0,0,176.72,5Zm-.9-3.3a1.14,1.14,0,0,1,.86.36,1.2,1.2,0,0,1,.35.86,1.23,1.23,0,0,1-.35.89,1.19,1.19,0,0,1-.89.36,1.16,1.16,0,0,1-.87-.36,1.22,1.22,0,0,1-.35-.89,1.16,1.16,0,0,1,.37-.87A1.23,1.23,0,0,1,175.81,1.7Z"/><path class="cls-1" d="M181.45,5V6.66a5,5,0,0,1,1.4-1.2,3.3,3.3,0,0,1,1.55-.35,4.44,4.44,0,0,1,1.22.17,3.63,3.63,0,0,1,1.08.5,3,3,0,0,1,.75.74,2.75,2.75,0,0,1,.37,1,10.49,10.49,0,0,1,.1,1.7V12.6a4.22,4.22,0,0,0,.12,1.25,2,2,0,0,0,.64.71h-3.32a2.81,2.81,0,0,0,.53-.49,1.12,1.12,0,0,0,.19-.51,7.24,7.24,0,0,0,0-1V9.43a6.18,6.18,0,0,0-.1-1.26,1.72,1.72,0,0,0-.33-.74,2,2,0,0,0-.83-.61,2.93,2.93,0,0,0-1.16-.23,2.58,2.58,0,0,0-1.1.23,2,2,0,0,0-.79.64,2,2,0,0,0-.27,1.13v4a7.21,7.21,0,0,0,0,1,1.06,1.06,0,0,0,.19.49,3.17,3.17,0,0,0,.52.49H179a2.78,2.78,0,0,0,.53-.49,1,1,0,0,0,.18-.47,8,8,0,0,0,0-1V7.34a8,8,0,0,0,0-1,1,1,0,0,0-.18-.47,2.8,2.8,0,0,0-.53-.49h1.28A1.54,1.54,0,0,0,181.45,5Z"/><path class="cls-1" d="M201,5.11l-.57,1.28a.57.57,0,0,1-.56.25,15.78,15.78,0,0,1-2.19-.29,3.75,3.75,0,0,1,1.12,1.12,2.59,2.59,0,0,1,.35,1.34,2.47,2.47,0,0,1-.57,1.62,3.82,3.82,0,0,1-1.69,1.1,7.91,7.91,0,0,1-2,.4,1.77,1.77,0,0,0-.6.21.36.36,0,0,0-.19.31q0,.38.83.38,1.36,0,2,.08a6.86,6.86,0,0,1,1.28.23,3.64,3.64,0,0,1,1,.47,3.28,3.28,0,0,1,.82.73,2.42,2.42,0,0,1,.43,1.45,2.6,2.6,0,0,1-1,2.12,5,5,0,0,1-.89.58,6.72,6.72,0,0,1-1,.42,7.76,7.76,0,0,1-1.18.26,9.16,9.16,0,0,1-1.31.09,9.63,9.63,0,0,1-2.75-.37,5,5,0,0,1-2-1,2,2,0,0,1-.72-1.46,1.58,1.58,0,0,1,.22-.84,1.41,1.41,0,0,1,.64-.55,2.34,2.34,0,0,1,1-.19,2.74,2.74,0,0,1,1.08.24,1.24,1.24,0,0,0-.67.3.85.85,0,0,0-.22.63,1.77,1.77,0,0,0,.92,1.57,4.64,4.64,0,0,0,2.48.58,5.65,5.65,0,0,0,1.84-.28,2.9,2.9,0,0,0,1.25-.77,1.65,1.65,0,0,0,.44-1.14,1.52,1.52,0,0,0-1-1.44,7.5,7.5,0,0,0-3-.47l-1,0-.45,0a1.38,1.38,0,0,1-.95-.34,1.64,1.64,0,0,1-.33-.51,1.45,1.45,0,0,1-.14-.57.5.5,0,0,1,.12-.34,1.58,1.58,0,0,1,.46-.31q.34-.17,1-.43a4.93,4.93,0,0,1-.82-.28,2.89,2.89,0,0,1-.62-.43,3.23,3.23,0,0,1-.8-1.09,3.07,3.07,0,0,1-.29-1.29,3,3,0,0,1,.53-1.72,3.67,3.67,0,0,1,1.48-1.22,4.75,4.75,0,0,1,2.08-.45q.35,0,1.73.09,1,.07,1.91.07A20.07,20.07,0,0,0,201,5.11Zm-6.3,1.15a2.1,2.1,0,0,0-1.47.54,1.75,1.75,0,0,0-.59,1.35,2.43,2.43,0,0,0,.75,1.8,2.49,2.49,0,0,0,1.82.74,1.94,1.94,0,0,0,1.45-.56,2,2,0,0,0,.55-1.45A2.29,2.29,0,0,0,196.48,7,2.47,2.47,0,0,0,194.7,6.27Z"/></svg>